<svg width="123" height="59" viewBox="0 0 123 59" fill="none" xmlns="http://www.w3.org/2000/svg">
<g clip-path="url(#clip0_61_96)">
<path d="M27.0077 49.0443C26.5339 49.0561 26.0721 49.0561 25.5984 49.0147C25.5214 49.0147 25.4977 48.985 25.4858 48.8962C25.4562 48.7481 25.4444 48.4698 25.4444 48.3158C25.9536 48.375 26.4688 48.3928 26.984 48.3691C26.978 48.1085 26.978 47.842 26.9721 47.5814C26.3148 47.5992 25.8234 47.5992 25.3378 47.5459C25.2608 47.5459 25.2312 47.5163 25.2194 47.4511C25.2016 47.2794 25.1839 47.1135 25.172 46.8352C25.7701 46.9063 26.3622 46.9062 26.9662 46.9062C26.9662 46.6516 26.9603 46.4739 26.9544 46.2429C26.9425 46.083 26.9248 45.9646 26.8715 45.7869C27.2327 45.8047 27.5287 45.8461 27.736 45.9113C27.8189 45.9409 27.8603 46.0356 27.813 46.1186C27.7656 46.2133 27.7182 46.3318 27.7123 46.4443C27.7064 46.5805 27.7064 46.6753 27.7005 46.8826C28.34 46.8352 28.7959 46.7582 29.1986 46.6753C29.2815 46.6575 29.3111 46.6753 29.317 46.7582C29.3466 46.9477 29.3525 47.1372 29.3525 47.2557C29.3525 47.3445 29.3348 47.3564 29.2756 47.3682C28.79 47.4511 28.3518 47.5044 27.6945 47.5459C27.6945 47.8183 27.7005 48.073 27.7005 48.3217C28.2215 48.2862 28.6301 48.2507 29.1216 48.1737C29.2045 48.1559 29.2223 48.1677 29.2282 48.227C29.2341 48.3573 29.246 48.5823 29.246 48.7896C29.246 48.8607 29.2163 48.8784 29.1453 48.8844C28.6953 48.9614 28.2985 48.9791 27.7241 49.0206C27.736 49.3345 27.7538 49.6721 27.7715 49.986C28.4288 50.1696 28.9913 50.4183 29.5835 50.8151C29.6545 50.8743 29.6545 50.898 29.6308 50.9809C29.5835 51.1112 29.4414 51.3659 29.3289 51.4903C29.2992 51.5317 29.2756 51.5436 29.24 51.5436C29.2223 51.5436 29.1927 51.5377 29.1631 51.508C28.7426 51.1823 28.3222 50.9395 27.8011 50.7263C27.7952 51.4666 27.3511 51.7686 26.4096 51.7686C25.4681 51.7686 25.0121 51.3777 25.0121 50.8092C25.0121 50.2406 25.551 49.8379 26.38 49.8379C26.5517 49.8379 26.7175 49.8379 27.0373 49.8675C27.0254 49.5655 27.0077 49.2871 27.0017 49.0502L27.0077 49.0443ZM26.4155 50.4242C25.9181 50.4242 25.6753 50.5664 25.6753 50.7855C25.6753 50.9632 25.8826 51.0935 26.3504 51.0935C26.6228 51.0935 26.8774 51.0105 26.9721 50.8862C27.0254 50.8092 27.0491 50.6967 27.0491 50.5012C26.8478 50.4538 26.605 50.4183 26.4096 50.4183L26.4155 50.4242Z" fill="black"/>
<path d="M36.63 50.3176C36.63 50.3887 36.6241 50.3946 36.5175 50.3946H36.0438C35.9727 50.3946 35.9668 50.3887 35.9668 50.3176C35.9668 50.2762 35.9727 50.1044 35.9786 49.3463C35.8661 49.4766 35.7714 49.6425 35.7062 49.7727C35.6707 49.826 35.653 49.8557 35.6174 49.8557C35.5819 49.8557 35.5464 49.8261 35.4931 49.7787C35.2917 49.5832 35.12 49.3759 34.9779 49.1686V50.8388C34.9779 51.3481 34.9898 51.8219 34.9898 51.8575C34.9898 51.9285 34.9838 51.9345 34.9069 51.9345H34.3621C34.2851 51.9345 34.2792 51.9285 34.2792 51.8575C34.2792 51.816 34.291 51.3481 34.291 50.8388V49.4233C34.0897 49.6365 33.8884 49.8379 33.6752 50.0274C33.6041 50.0866 33.5568 50.1222 33.5212 50.1222C33.4857 50.1222 33.4679 50.0807 33.4443 50.0096C33.385 49.7905 33.314 49.6247 33.2015 49.4529C33.9357 48.9673 34.5693 48.2092 34.9365 47.3741H34.1844C33.6811 47.3741 33.5153 47.386 33.4739 47.386C33.4028 47.386 33.3969 47.3801 33.3969 47.309V46.7996C33.3969 46.7286 33.4028 46.7227 33.4739 46.7227C33.5153 46.7227 33.6811 46.7345 34.1844 46.7345H34.2851V46.4502C34.2851 46.083 34.2792 45.8876 34.214 45.6092C34.4687 45.6151 34.7114 45.6388 34.9542 45.6684C35.0253 45.6744 35.0667 45.704 35.0667 45.7395C35.0667 45.7987 35.049 45.8343 35.0253 45.8817C34.9838 45.9646 34.9661 46.0653 34.9661 46.4206V46.7286H35.1615C35.2325 46.7286 35.2503 46.7227 35.2858 46.699C35.3036 46.6871 35.3332 46.6575 35.3687 46.6575C35.422 46.6575 35.499 46.699 35.6648 46.853C35.8188 46.9951 35.8484 47.0365 35.8484 47.0839C35.8484 47.155 35.8306 47.1846 35.7655 47.2379C35.7181 47.2794 35.6648 47.3504 35.5997 47.4926C35.4635 47.8065 35.2917 48.1085 35.0963 48.3987C35.3214 48.7008 35.5937 48.9554 35.9668 49.2042V47.9072C35.9668 47.0602 35.9549 46.8293 35.9549 46.7878C35.9549 46.7167 35.9609 46.7108 36.0319 46.7108C36.0793 46.7108 36.2925 46.7227 36.9024 46.7227H37.2754V46.6397C37.2754 46.1541 37.2695 45.9409 37.1984 45.6033C37.459 45.6092 37.7077 45.6211 37.9386 45.6566C37.9978 45.6625 38.0393 45.6921 38.0393 45.7277C38.0393 45.7751 38.0215 45.8165 37.9978 45.8639C37.9623 45.9527 37.9505 46.1186 37.9505 46.622V46.7227H38.3887C38.9986 46.7227 39.2177 46.7108 39.2591 46.7108C39.3183 46.7108 39.3302 46.7167 39.3302 46.7878C39.3302 46.8293 39.3242 47.0602 39.3242 47.7828V48.7718C39.3242 50.0037 39.3302 50.2288 39.3302 50.2702C39.3302 50.3472 39.3242 50.3531 39.2591 50.3531H38.738C38.667 50.3531 38.661 50.3472 38.661 50.2702V50.0096H37.9445V50.9869C37.9445 51.585 37.9564 51.7923 37.9564 51.8279C37.9564 51.8989 37.9505 51.9048 37.8794 51.9048H37.3169C37.2577 51.9048 37.2458 51.8989 37.2458 51.8279C37.2458 51.7864 37.2577 51.585 37.2577 50.9987V50.0156H36.6004V50.3058L36.63 50.3176ZM37.2991 48.0671V47.3445H36.63V48.0671H37.2991ZM37.2991 49.4292V48.6534H36.63V49.4292H37.2991ZM37.9682 47.3445V48.0671H38.6906V47.3445H37.9682ZM38.6906 49.4292V48.6534H37.9682V49.4292H38.6906Z" fill="black"/>
<path d="M38.3531 55.3695C38.3531 54.949 38.3413 54.7417 38.3057 54.4752C38.5722 54.4811 38.8446 54.5048 39.0755 54.5285C39.1466 54.5403 39.188 54.57 39.188 54.6055C39.188 54.6588 39.1703 54.6943 39.1466 54.7476C39.1111 54.8246 39.1051 54.9431 39.1051 55.4346V57.5371C39.1051 58.2952 39.117 58.6506 39.117 58.692C39.117 58.7631 39.1111 58.769 39.04 58.769H38.4301C38.359 58.769 38.3531 58.7631 38.3531 58.692V58.2893H34.5693V58.692C34.5693 58.7631 34.5634 58.769 34.4923 58.769H33.8884C33.8114 58.769 33.8055 58.7631 33.8055 58.692C33.8055 58.6446 33.8173 58.3308 33.8173 57.5727V55.3873C33.8173 54.9727 33.8114 54.7713 33.7758 54.4989C34.0364 54.5048 34.3029 54.5167 34.5456 54.5522C34.6048 54.5581 34.6581 54.5937 34.6581 54.6292C34.6581 54.6766 34.6285 54.718 34.6167 54.7654C34.5812 54.8483 34.5693 54.9845 34.5693 55.3813V57.5964H36.026V53.6697C36.026 53.1841 36.0141 52.9709 35.9727 52.6274C36.2273 52.6333 36.5234 52.6451 36.7662 52.6748C36.8254 52.6807 36.8668 52.7162 36.8668 52.7518C36.8668 52.8051 36.8491 52.8406 36.8254 52.8939C36.7958 52.9768 36.7899 53.1486 36.7899 53.6579V57.6023H38.3531V55.3695Z" fill="black"/>
<path d="M26.8537 55.3458C27.2386 55.1267 27.5643 55.0378 27.9492 55.0378C28.9499 55.0378 29.6545 55.6952 29.6545 56.6902C29.6545 57.8392 28.7249 58.5736 27.2564 58.5736C26.3918 58.5736 25.8648 58.2004 25.8648 57.5608C25.8648 57.0989 26.2971 56.7198 26.8359 56.7198C27.4814 56.7198 27.9551 57.0633 28.1268 57.7266C28.6064 57.5075 28.8255 57.2055 28.8255 56.6843C28.8255 56.0565 28.3874 55.6478 27.7478 55.6478C27.1794 55.6478 26.5458 55.9025 25.9892 56.3763C25.7878 56.554 25.6694 56.6784 25.4622 56.8857C25.4148 56.933 25.3793 56.9626 25.3437 56.9626C25.3141 56.9626 25.2845 56.9449 25.2431 56.9034C25.101 56.779 24.947 56.6014 24.8404 56.4592C24.799 56.4059 24.8226 56.3585 24.8759 56.2993C25.4148 55.867 25.8115 55.4998 26.4333 54.8542C26.8596 54.416 27.1853 54.0725 27.4991 53.6757C27.0846 53.7526 26.5991 53.8474 26.1727 53.9362C26.0839 53.954 25.9951 53.9777 25.8826 54.0192C25.8471 54.031 25.7819 54.0547 25.7464 54.0547C25.6753 54.0547 25.628 54.0192 25.5924 53.9362C25.5095 53.7763 25.4503 53.5868 25.3497 53.1959C25.5569 53.2255 25.7819 53.2255 25.9892 53.2078C26.4096 53.1663 27.0136 53.0775 27.5524 52.9768C27.7242 52.9413 27.8603 52.9057 27.9314 52.8761C27.9669 52.8583 28.0261 52.8228 28.0617 52.8228C28.1327 52.8228 28.1742 52.8406 28.2216 52.8761C28.4288 53.036 28.565 53.1722 28.6834 53.3144C28.7367 53.3736 28.7604 53.4269 28.7604 53.4802C28.7604 53.5513 28.719 53.6105 28.642 53.646C28.5235 53.6993 28.4703 53.7467 28.34 53.8652C27.8367 54.3508 27.3748 54.8365 26.8537 55.334V55.3517V55.3458ZM26.8596 57.3002C26.6583 57.3002 26.528 57.4187 26.528 57.5608C26.528 57.774 26.7116 57.9162 27.1261 57.9162C27.2504 57.9162 27.3393 57.9102 27.4399 57.8866C27.3511 57.5075 27.1439 57.2943 26.8537 57.2943L26.8596 57.3002Z" fill="black"/>
<path d="M19.9611 52.9827C20.044 53.0005 20.0855 53.036 20.0855 53.0953C20.0855 53.19 20.0381 53.2907 20.0381 53.3855C20.0381 53.5217 20.0559 53.6875 20.0737 53.8474C20.1329 54.3271 20.2039 54.6706 20.2927 55.0319C20.6362 54.8483 20.8849 54.718 21.2698 54.5107C21.4711 54.3923 21.6369 54.2798 21.7435 54.1376C21.9626 54.3627 22.1402 54.6055 22.2468 54.7832C22.2764 54.8246 22.2942 54.8779 22.2942 54.9253C22.2942 54.9964 22.2527 55.0497 22.158 55.0615C21.9507 55.0971 21.7198 55.18 21.5007 55.2688C20.9086 55.5116 20.3579 55.7663 19.8842 56.0743C19.2861 56.4652 19.0729 56.7909 19.0729 57.1107C19.0729 57.5134 19.3749 57.6911 20.1684 57.6911C21.0329 57.6911 21.7376 57.6319 22.2646 57.5312C22.3416 57.5194 22.3771 57.5312 22.3889 57.6141C22.4245 57.7977 22.4422 58.0465 22.46 58.2538C22.4659 58.3307 22.4185 58.3663 22.3356 58.3722C21.708 58.4551 21.1573 58.4729 20.2868 58.4729C18.99 58.4729 18.2972 58.0465 18.2972 57.1522C18.2972 56.3882 18.8005 55.8848 19.6059 55.3754C19.4401 54.8483 19.3157 54.2265 19.2506 53.6993C19.2032 53.3322 19.1558 53.0953 19.0729 52.8998C19.4045 52.8998 19.7184 52.9176 19.973 52.9827H19.9611Z" fill="black"/>
<path d="M19.1144 49.4944C19.1736 49.5299 19.1854 49.5654 19.1499 49.6187C19.0492 49.7786 18.9723 50.0037 18.9723 50.1399C18.9723 50.5723 19.4164 50.7855 20.6007 50.7855C21.2698 50.7855 21.8975 50.7085 22.4659 50.5841C22.5607 50.5663 22.5962 50.5841 22.608 50.6433C22.6436 50.7736 22.7028 51.1467 22.7205 51.3185C22.7265 51.3777 22.685 51.4073 22.6021 51.4192C21.9626 51.5376 21.329 51.585 20.5888 51.585C19.0019 51.585 18.2262 51.0875 18.2262 50.1932C18.2262 49.9089 18.3268 49.6128 18.5933 49.2101C18.7709 49.2989 18.9427 49.3878 19.1203 49.4825L19.1144 49.4944ZM20.6658 46.7996C21.1691 46.7996 21.6547 46.77 22.0929 46.7404C22.1639 46.7345 22.1876 46.7582 22.1935 46.8174C22.2231 46.9773 22.2468 47.1668 22.2527 47.4037C22.2527 47.4985 22.2172 47.5399 22.1343 47.5459C21.483 47.6406 21.0092 47.8716 20.4526 48.2269C20.3993 48.2684 20.3342 48.2862 20.2809 48.2862C20.2335 48.2862 20.1862 48.2743 20.1388 48.2447C20.0026 48.1559 19.8546 48.0789 19.6592 48.0256C20.0144 47.7946 20.3164 47.5992 20.5592 47.457C20.4053 47.4748 20.1921 47.4748 20.0559 47.4748C19.7717 47.4748 19.1854 47.4333 18.7887 47.3563C18.7295 47.3445 18.6999 47.3149 18.6999 47.232C18.6999 47.0661 18.7117 46.8648 18.7295 46.6219C19.2506 46.7463 19.9138 46.7996 20.6599 46.7996H20.6658ZM22.537 46.0356C22.5725 46.006 22.5962 46.0179 22.6376 46.0475C22.8508 46.2133 23.0995 46.4857 23.289 46.7819C23.3186 46.8233 23.3186 46.8588 23.2712 46.8944L22.9811 47.1076C22.9337 47.1431 22.8982 47.1372 22.8626 47.0898C22.6554 46.7759 22.4363 46.5094 22.1698 46.2903L22.537 46.0356ZM23.1469 45.5914C23.1883 45.5618 23.2061 45.5737 23.2475 45.6033C23.5022 45.7987 23.7509 46.0712 23.8989 46.314C23.9285 46.3554 23.9344 46.3969 23.8811 46.4384L23.6087 46.6516C23.5555 46.693 23.5199 46.6693 23.4903 46.6338C23.3068 46.3377 23.0877 46.0771 22.8034 45.8461L23.1469 45.5974V45.5914Z" fill="black"/>
<path d="M9.32626 46.8115C8.71043 46.8115 8.49726 46.8233 8.45581 46.8233C8.38475 46.8233 8.37883 46.8174 8.37883 46.7463V46.2666C8.37883 46.1956 8.38475 46.1896 8.45581 46.1896C8.49726 46.1896 8.71043 46.2015 9.32626 46.2015H10.9961V46.1837C10.9961 45.9587 10.9902 45.781 10.9487 45.6151C11.2034 45.6151 11.4461 45.627 11.6771 45.6507C11.7481 45.6566 11.7896 45.6862 11.7896 45.7217C11.7896 45.7691 11.76 45.8047 11.7422 45.858C11.7304 45.9113 11.7126 46.0001 11.7126 46.1896V46.2074H13.4713C14.0871 46.2074 14.3003 46.1956 14.3417 46.1956C14.4128 46.1956 14.4187 46.2015 14.4187 46.2725V46.7523C14.4187 46.8233 14.4128 46.8293 14.3417 46.8293C14.3003 46.8293 14.0871 46.8174 13.4713 46.8174H9.32626V46.8115ZM14.1641 50.3354C14.1641 50.7085 14.1759 50.9928 14.1759 51.206C14.1759 51.3896 14.1463 51.5791 14.0101 51.7035C13.8858 51.816 13.8443 51.8456 13.3469 51.8456C13.1337 51.8456 13.1278 51.8338 13.0923 51.6324C13.0627 51.4666 13.0094 51.2948 12.9502 51.1764C13.1574 51.1941 13.1278 51.206 13.2759 51.206C13.3884 51.206 13.4476 51.1586 13.4476 51.0105V49.5062H9.3381V51.0461C9.3381 51.5554 9.34995 51.7864 9.34995 51.8219C9.34995 51.893 9.34402 51.8989 9.27297 51.8989H8.68082C8.60977 51.8989 8.60384 51.893 8.60384 51.8219C8.60384 51.7805 8.61569 51.5732 8.61569 51.0461V49.7135C8.61569 49.2338 8.60384 49.0265 8.60384 48.985C8.60384 48.914 8.60977 48.9081 8.68082 48.9081C8.72819 48.9081 8.95321 48.9199 9.61049 48.9199H13.1693C13.8206 48.9199 14.0516 48.9081 14.0989 48.9081C14.17 48.9081 14.1759 48.914 14.1759 48.985C14.1759 49.0265 14.1641 49.2693 14.1641 49.7668V50.3295V50.3354ZM12.2218 47.1491C12.8495 47.1491 13.0686 47.1372 13.1101 47.1372C13.1811 47.1372 13.187 47.1432 13.187 47.2142C13.187 47.2616 13.1752 47.3682 13.1752 47.6584V48.0789C13.1752 48.3632 13.187 48.4698 13.187 48.5113C13.187 48.5823 13.1811 48.5882 13.1101 48.5882C13.0686 48.5882 12.8495 48.5764 12.2218 48.5764H10.5638C9.93617 48.5764 9.71707 48.5882 9.67562 48.5882C9.60457 48.5882 9.59864 48.5823 9.59864 48.5113C9.59864 48.4698 9.61049 48.3573 9.61049 48.0789V47.6584C9.61049 47.3623 9.59864 47.2616 9.59864 47.2142C9.59864 47.1432 9.60457 47.1372 9.67562 47.1372C9.71707 47.1372 9.93617 47.1491 10.5638 47.1491H12.2218ZM10.102 51.4429C10.0309 51.4429 10.025 51.437 10.025 51.3659C10.025 51.3185 10.0368 51.206 10.0368 50.5782V50.3235C10.0368 50.0629 10.025 49.9327 10.025 49.8912C10.025 49.8201 10.0309 49.8142 10.102 49.8142C10.1434 49.8142 10.3211 49.826 10.8421 49.826H11.9139C12.4291 49.826 12.6067 49.8142 12.6541 49.8142C12.7252 49.8142 12.7311 49.8201 12.7311 49.8912C12.7311 49.9327 12.7192 50.057 12.7192 50.2584V50.5604C12.7192 51.1764 12.7311 51.2889 12.7311 51.3304C12.7311 51.4014 12.7252 51.4074 12.6541 51.4074H12.1449C12.0679 51.4074 12.062 51.4014 12.062 51.3304V51.1882H10.6645V51.3718C10.6645 51.4429 10.6586 51.4488 10.5875 51.4488H10.0901L10.102 51.4429ZM12.5001 47.6347H10.2855V48.0908H12.5001V47.6347ZM10.6704 50.7263H12.0679V50.288H10.6704V50.7263Z" fill="black"/>
<path d="M12.2455 56.7139C12.2396 56.6014 12.2278 56.5185 12.2041 56.4059C12.4587 56.4119 12.7192 56.4178 12.9265 56.4533C12.9857 56.4592 13.0212 56.4948 13.0212 56.5303C13.0212 56.5658 13.0094 56.5895 12.9857 56.631C12.9739 56.6606 12.9679 56.6784 12.9561 56.7139H13.5245C14.1345 56.7139 14.3417 56.7021 14.3832 56.7021C14.4542 56.7021 14.4542 56.708 14.4542 56.779V57.2351C14.4542 57.3121 14.4542 57.318 14.3832 57.318C14.3417 57.318 14.1345 57.3062 13.5245 57.3062H12.9561V57.4009C12.9561 57.6733 12.962 57.8866 12.962 58.1294C12.962 58.39 12.8791 58.5499 12.7074 58.6387C12.5653 58.7157 12.3403 58.7631 11.7777 58.7631C11.5705 58.7631 11.5646 58.7631 11.5231 58.6032C11.4757 58.384 11.3988 58.1886 11.3277 58.0879C11.5764 58.1057 11.8133 58.1175 11.9554 58.1175C12.1567 58.1175 12.2396 58.0583 12.2396 57.8984V57.3062H9.2552C8.64529 57.3062 8.43804 57.318 8.39659 57.318C8.32553 57.318 8.32553 57.3121 8.32553 57.2351V56.779C8.32553 56.708 8.32553 56.7021 8.39659 56.7021C8.43804 56.7021 8.64529 56.7139 9.2552 56.7139H12.2396H12.2455ZM10.1849 56.2934C9.50982 56.2934 9.27296 56.3052 9.23151 56.3052C9.15453 56.3052 9.14861 56.2993 9.14861 56.2283C9.14861 56.1809 9.16045 56.0091 9.16045 55.6123V54.7062C9.16045 54.2857 9.14861 54.1139 9.14861 54.0665C9.14861 53.9955 9.15453 53.9895 9.23151 53.9895C9.27296 53.9895 9.51574 54.0014 10.1849 54.0014H10.9961V53.646H9.3677C8.75187 53.646 8.5387 53.6579 8.49725 53.6579C8.4262 53.6579 8.42027 53.652 8.42027 53.5809V53.1367C8.42027 53.0597 8.4262 53.0538 8.49725 53.0538C8.5387 53.0538 8.75187 53.0656 9.3677 53.0656H10.9961C10.9902 52.8169 10.9843 52.6511 10.9546 52.4793C11.1974 52.4852 11.4284 52.4971 11.6652 52.5267C11.7244 52.5326 11.754 52.5563 11.754 52.5978C11.754 52.6511 11.7363 52.6866 11.7185 52.734C11.7007 52.7814 11.683 52.8643 11.683 53.0656H13.4298C14.0575 53.0656 14.2706 53.0538 14.3121 53.0538C14.3832 53.0538 14.3891 53.0597 14.3891 53.1367V53.5809C14.3891 53.652 14.3832 53.6579 14.3121 53.6579C14.2706 53.6579 14.0575 53.646 13.4298 53.646H11.683V54.0014H12.6067C13.2818 54.0014 13.5186 53.9895 13.5719 53.9895C13.643 53.9895 13.6489 53.9955 13.6489 54.0665C13.6489 54.108 13.6371 54.2857 13.6371 54.6825V55.6123C13.6371 56.0091 13.6489 56.1927 13.6489 56.2283C13.6489 56.2993 13.643 56.3052 13.5719 56.3052C13.5245 56.3052 13.2818 56.2934 12.6067 56.2934H10.1849ZM10.1612 57.3713C10.2441 57.3298 10.2559 57.3358 10.3151 57.3831C10.5401 57.6023 10.777 57.8688 10.9546 58.1412C10.9961 58.2004 10.9843 58.2241 10.9014 58.2656L10.4217 58.5203C10.3388 58.5676 10.327 58.5736 10.2855 58.5084C10.1079 58.2064 9.89471 57.9399 9.67562 57.7148C9.62232 57.6556 9.63417 57.6319 9.71115 57.5904L10.173 57.3713H10.1612ZM10.9961 54.9016V54.5048H9.8355V54.9016H10.9961ZM10.9961 55.7959V55.3813H9.8355V55.7959H10.9961ZM11.683 54.5048V54.9016H12.9502V54.5048H11.683ZM12.9442 55.3873H11.6771V55.8018H12.9442V55.3873Z" fill="black"/>
<path d="M123 58.9998C122.828 51.3953 121.235 44.0099 118.251 37.0273C115.172 29.8315 110.754 23.3641 105.123 17.8029C99.4919 12.2416 92.925 7.87081 85.6062 4.8148C78.0267 1.64034 69.9795 0.0234955 61.6717 -0.00019452C53.364 -0.0238845 45.3049 1.5515 37.7136 4.67266C30.3769 7.69314 23.7864 12.0225 18.1196 17.5541C12.4528 23.0798 7.99986 29.5235 4.87926 36.7016C1.81196 43.773 0.171722 51.265 0 58.9939H1.14876C1.32048 51.419 2.93111 44.0751 5.9392 37.1458C9.00058 30.1039 13.3706 23.7787 18.9308 18.3536C24.491 12.9286 30.9573 8.67628 38.1577 5.71502C45.6069 2.64717 53.5179 1.10139 61.6717 1.12508C69.8196 1.14877 77.7247 2.736 85.1561 5.84532C92.3388 8.84803 98.7813 13.1359 104.312 18.5905C109.843 24.0452 114.177 30.3941 117.197 37.4537C120.122 44.2942 121.685 51.5374 121.857 58.9939H123.006L123 58.9998Z" fill="black"/>
</g>
<defs>
<clipPath id="clip0_61_96">
<rect width="123" height="59" fill="white"/>
</clipPath>
</defs>
</svg>
