<svg width="312" height="209" viewBox="0 0 312 209" fill="none" xmlns="http://www.w3.org/2000/svg">
<path d="M71 3H239L283 171H28L71 3Z" stroke="white" stroke-width="5" stroke-linecap="round" stroke-linejoin="round"/>
<path d="M7.95766 205V190.4H9.75766V196.64H14.4377V190.4H16.2377V205H14.4377V198.28H9.75766V205H7.95766ZM24.0898 205.16C23.2098 205.16 22.4498 204.993 21.8098 204.66C21.1698 204.327 20.6698 203.847 20.3098 203.22C19.9632 202.58 19.7898 201.827 19.7898 200.96V198.04C19.7898 197.16 19.9632 196.407 20.3098 195.78C20.6698 195.153 21.1698 194.673 21.8098 194.34C22.4498 194.007 23.2098 193.84 24.0898 193.84C24.9698 193.84 25.7298 194.007 26.3698 194.34C27.0098 194.673 27.5032 195.153 27.8498 195.78C28.2098 196.407 28.3898 197.153 28.3898 198.02V200.96C28.3898 201.827 28.2098 202.58 27.8498 203.22C27.5032 203.847 27.0098 204.327 26.3698 204.66C25.7298 204.993 24.9698 205.16 24.0898 205.16ZM24.0898 203.56C24.8765 203.56 25.4898 203.34 25.9298 202.9C26.3698 202.46 26.5898 201.813 26.5898 200.96V198.04C26.5898 197.187 26.3698 196.54 25.9298 196.1C25.4898 195.66 24.8765 195.44 24.0898 195.44C23.3165 195.44 22.7032 195.66 22.2498 196.1C21.8098 196.54 21.5898 197.187 21.5898 198.04V200.96C21.5898 201.813 21.8098 202.46 22.2498 202.9C22.7032 203.34 23.3165 203.56 24.0898 203.56ZM37.582 205C36.942 205 36.382 204.873 35.902 204.62C35.422 204.367 35.0487 204.007 34.782 203.54C34.5154 203.073 34.382 202.527 34.382 201.9V192.04H30.682V190.4H36.182V201.9C36.182 202.353 36.3087 202.713 36.562 202.98C36.8154 203.233 37.1554 203.36 37.582 203.36H41.082V205H37.582ZM47.4342 205.2C46.3409 205.2 45.4542 204.833 44.7742 204.1C44.1076 203.367 43.7742 202.373 43.7742 201.12V197.9C43.7742 196.633 44.1076 195.633 44.7742 194.9C45.4409 194.167 46.3276 193.8 47.4342 193.8C48.3409 193.8 49.0676 194.047 49.6142 194.54C50.1609 195.033 50.4342 195.693 50.4342 196.52L50.0742 196.1H50.4742L50.4342 193.6V190.4H52.2342V205H50.4342V202.9H50.0742L50.4342 202.48C50.4342 203.32 50.1609 203.987 49.6142 204.48C49.0676 204.96 48.3409 205.2 47.4342 205.2ZM48.0342 203.64C48.7809 203.64 49.3676 203.407 49.7942 202.94C50.2209 202.473 50.4342 201.827 50.4342 201V198C50.4342 197.173 50.2209 196.527 49.7942 196.06C49.3676 195.593 48.7809 195.36 48.0342 195.36C47.2742 195.36 46.6742 195.587 46.2342 196.04C45.7942 196.493 45.5742 197.147 45.5742 198V201C45.5742 201.853 45.7942 202.507 46.2342 202.96C46.6742 203.413 47.2742 203.64 48.0342 203.64ZM67.7586 205V203.36H71.6586V195.64H68.2586V194H73.4586V203.36H77.1586V205H67.7586ZM72.3586 192.02C71.9186 192.02 71.5719 191.907 71.3186 191.68C71.0653 191.453 70.9386 191.147 70.9386 190.76C70.9386 190.36 71.0653 190.047 71.3186 189.82C71.5719 189.58 71.9186 189.46 72.3586 189.46C72.7986 189.46 73.1453 189.58 73.3986 189.82C73.6519 190.047 73.7786 190.36 73.7786 190.76C73.7786 191.147 73.6519 191.453 73.3986 191.68C73.1453 191.907 72.7986 192.02 72.3586 192.02ZM85.2508 205C84.3041 205 83.5641 204.747 83.0308 204.24C82.5108 203.733 82.2508 203.02 82.2508 202.1V195.64H79.1508V194H82.2508V190.9H84.0508V194H88.4508V195.64H84.0508V202.1C84.0508 202.94 84.4508 203.36 85.2508 203.36H88.2508V205H85.2508ZM108.015 205.2C106.748 205.2 105.735 204.827 104.975 204.08C104.215 203.32 103.835 202.293 103.835 201V194H105.635V201C105.635 201.827 105.848 202.473 106.275 202.94C106.702 203.393 107.282 203.62 108.015 203.62C108.762 203.62 109.348 203.393 109.775 202.94C110.215 202.473 110.435 201.827 110.435 201V194H112.235V201C112.235 202.293 111.848 203.32 111.075 204.08C110.302 204.827 109.282 205.2 108.015 205.2ZM115.867 208.6V194H117.667V196.1H118.027L117.667 196.52C117.667 195.68 117.941 195.02 118.487 194.54C119.047 194.047 119.781 193.8 120.687 193.8C121.794 193.8 122.674 194.167 123.327 194.9C123.994 195.62 124.327 196.613 124.327 197.88V201.1C124.327 201.94 124.174 202.667 123.867 203.28C123.574 203.893 123.154 204.367 122.607 204.7C122.074 205.033 121.434 205.2 120.687 205.2C119.794 205.2 119.067 204.953 118.507 204.46C117.947 203.967 117.667 203.307 117.667 202.48L118.027 202.9H117.627L117.667 205.4V208.6H115.867ZM120.087 203.64C120.847 203.64 121.441 203.413 121.867 202.96C122.307 202.507 122.527 201.853 122.527 201V198C122.527 197.147 122.307 196.493 121.867 196.04C121.441 195.587 120.847 195.36 120.087 195.36C119.354 195.36 118.767 195.593 118.327 196.06C117.887 196.527 117.667 197.173 117.667 198V201C117.667 201.827 117.887 202.473 118.327 202.94C118.767 203.407 119.354 203.64 120.087 203.64ZM145.212 205C144.265 205 143.525 204.747 142.992 204.24C142.472 203.733 142.212 203.02 142.212 202.1V195.64H139.112V194H142.212V190.9H144.012V194H148.412V195.64H144.012V202.1C144.012 202.94 144.412 203.36 145.212 203.36H148.212V205H145.212ZM156.004 205.16C155.124 205.16 154.364 204.993 153.724 204.66C153.084 204.327 152.584 203.847 152.224 203.22C151.877 202.58 151.704 201.827 151.704 200.96V198.04C151.704 197.16 151.877 196.407 152.224 195.78C152.584 195.153 153.084 194.673 153.724 194.34C154.364 194.007 155.124 193.84 156.004 193.84C156.884 193.84 157.644 194.007 158.284 194.34C158.924 194.673 159.417 195.153 159.764 195.78C160.124 196.407 160.304 197.153 160.304 198.02V200.96C160.304 201.827 160.124 202.58 159.764 203.22C159.417 203.847 158.924 204.327 158.284 204.66C157.644 204.993 156.884 205.16 156.004 205.16ZM156.004 203.56C156.791 203.56 157.404 203.34 157.844 202.9C158.284 202.46 158.504 201.813 158.504 200.96V198.04C158.504 197.187 158.284 196.54 157.844 196.1C157.404 195.66 156.791 195.44 156.004 195.44C155.231 195.44 154.617 195.66 154.164 196.1C153.724 196.54 153.504 197.187 153.504 198.04V200.96C153.504 201.813 153.724 202.46 154.164 202.9C154.617 203.34 155.231 203.56 156.004 203.56ZM181.188 205C180.242 205 179.502 204.747 178.968 204.24C178.448 203.733 178.188 203.02 178.188 202.1V195.64H175.088V194H178.188V190.9H179.988V194H184.388V195.64H179.988V202.1C179.988 202.94 180.388 203.36 181.188 203.36H184.188V205H181.188ZM187.82 205V190.4H189.62V194V196.1H190L189.62 196.52C189.62 195.653 189.88 194.987 190.4 194.52C190.92 194.04 191.64 193.8 192.56 193.8C193.667 193.8 194.547 194.14 195.2 194.82C195.854 195.5 196.18 196.427 196.18 197.6V205H194.38V197.8C194.38 197.013 194.167 196.407 193.74 195.98C193.327 195.54 192.76 195.32 192.04 195.32C191.294 195.32 190.7 195.553 190.26 196.02C189.834 196.487 189.62 197.147 189.62 198V205H187.82ZM203.973 205.2C203.106 205.2 202.346 205.027 201.693 204.68C201.053 204.333 200.553 203.847 200.193 203.22C199.846 202.58 199.673 201.84 199.673 201V198C199.673 197.147 199.846 196.407 200.193 195.78C200.553 195.153 201.053 194.667 201.693 194.32C202.346 193.973 203.106 193.8 203.973 193.8C204.839 193.8 205.593 193.973 206.233 194.32C206.886 194.667 207.386 195.153 207.733 195.78C208.093 196.407 208.273 197.147 208.273 198V199.94H201.433V201C201.433 201.867 201.653 202.533 202.093 203C202.533 203.453 203.159 203.68 203.973 203.68C204.666 203.68 205.226 203.56 205.653 203.32C206.079 203.067 206.339 202.693 206.433 202.2H208.233C208.113 203.12 207.659 203.853 206.873 204.4C206.099 204.933 205.133 205.2 203.973 205.2ZM206.513 198.74V198C206.513 197.133 206.293 196.467 205.853 196C205.426 195.533 204.799 195.3 203.973 195.3C203.159 195.3 202.533 195.533 202.093 196C201.653 196.467 201.433 197.133 201.433 198V198.58H206.653L206.513 198.74ZM223.277 205V194H224.857V195.32H225.217L224.937 195.8C224.937 195.187 225.097 194.7 225.417 194.34C225.75 193.98 226.197 193.8 226.757 193.8C227.37 193.8 227.844 194.027 228.177 194.48C228.51 194.933 228.677 195.573 228.677 196.4L228.137 195.32H228.977L228.597 195.8C228.597 195.187 228.764 194.7 229.097 194.34C229.444 193.98 229.897 193.8 230.457 193.8C231.15 193.8 231.684 194.06 232.057 194.58C232.444 195.1 232.637 195.787 232.637 196.64V205H230.977V196.62C230.977 196.167 230.877 195.813 230.677 195.56C230.49 195.307 230.21 195.18 229.837 195.18C229.477 195.18 229.19 195.307 228.977 195.56C228.777 195.8 228.677 196.147 228.677 196.6V205H227.237V196.62C227.237 196.153 227.13 195.8 226.917 195.56C226.717 195.307 226.43 195.18 226.057 195.18C225.684 195.18 225.404 195.307 225.217 195.56C225.03 195.8 224.937 196.147 224.937 196.6V205H223.277ZM238.989 205.2C237.829 205.2 236.916 204.907 236.249 204.32C235.583 203.72 235.249 202.913 235.249 201.9C235.249 200.873 235.583 200.067 236.249 199.48C236.916 198.893 237.816 198.6 238.949 198.6H242.349V197.5C242.349 196.82 242.143 196.3 241.729 195.94C241.329 195.567 240.756 195.38 240.009 195.38C239.356 195.38 238.809 195.52 238.369 195.8C237.929 196.067 237.676 196.433 237.609 196.9H235.809C235.929 195.953 236.376 195.2 237.149 194.64C237.923 194.08 238.889 193.8 240.049 193.8C241.316 193.8 242.316 194.127 243.049 194.78C243.783 195.433 244.149 196.32 244.149 197.44V205H242.389V202.9H242.089L242.389 202.6C242.389 203.4 242.076 204.033 241.449 204.5C240.836 204.967 240.016 205.2 238.989 205.2ZM239.429 203.78C240.283 203.78 240.983 203.567 241.529 203.14C242.076 202.713 242.349 202.167 242.349 201.5V199.94H238.989C238.389 199.94 237.916 200.107 237.569 200.44C237.223 200.773 237.049 201.227 237.049 201.8C237.049 202.413 237.256 202.9 237.669 203.26C238.096 203.607 238.683 203.78 239.429 203.78ZM248.161 205V194H249.921V196.1H250.341L249.761 197.4C249.761 196.213 250.015 195.32 250.521 194.72C251.041 194.107 251.808 193.8 252.821 193.8C253.981 193.8 254.901 194.167 255.581 194.9C256.275 195.62 256.621 196.6 256.621 197.84V198.5H254.821V198C254.821 197.133 254.608 196.473 254.181 196.02C253.768 195.553 253.175 195.32 252.401 195.32C251.641 195.32 251.041 195.553 250.601 196.02C250.175 196.487 249.961 197.147 249.961 198V205H248.161ZM259.834 205V190.4H261.634V198.54H263.754L266.954 194H269.014L265.314 199.24L269.074 205H266.974L263.774 200.1H261.634V205H259.834ZM275.926 205.2C275.059 205.2 274.299 205.027 273.646 204.68C273.006 204.333 272.506 203.847 272.146 203.22C271.799 202.58 271.626 201.84 271.626 201V198C271.626 197.147 271.799 196.407 272.146 195.78C272.506 195.153 273.006 194.667 273.646 194.32C274.299 193.973 275.059 193.8 275.926 193.8C276.792 193.8 277.546 193.973 278.186 194.32C278.839 194.667 279.339 195.153 279.686 195.78C280.046 196.407 280.226 197.147 280.226 198V199.94H273.386V201C273.386 201.867 273.606 202.533 274.046 203C274.486 203.453 275.112 203.68 275.926 203.68C276.619 203.68 277.179 203.56 277.606 203.32C278.032 203.067 278.292 202.693 278.386 202.2H280.186C280.066 203.12 279.612 203.853 278.826 204.4C278.052 204.933 277.086 205.2 275.926 205.2ZM278.466 198.74V198C278.466 197.133 278.246 196.467 277.806 196C277.379 195.533 276.752 195.3 275.926 195.3C275.112 195.3 274.486 195.533 274.046 196C273.606 196.467 273.386 197.133 273.386 198V198.58H278.606L278.466 198.74ZM284.138 205V194H285.898V196.1H286.318L285.738 197.4C285.738 196.213 285.991 195.32 286.498 194.72C287.018 194.107 287.785 193.8 288.798 193.8C289.958 193.8 290.878 194.167 291.558 194.9C292.251 195.62 292.598 196.6 292.598 197.84V198.5H290.798V198C290.798 197.133 290.585 196.473 290.158 196.02C289.745 195.553 289.151 195.32 288.378 195.32C287.618 195.32 287.018 195.553 286.578 196.02C286.151 196.487 285.938 197.147 285.938 198V205H284.138ZM299.27 200.7L298.85 192.8V190.4H300.97V192.8L300.55 200.7H299.27ZM299.61 205.1C299.263 205.1 298.977 204.987 298.75 204.76C298.523 204.533 298.41 204.247 298.41 203.9C298.41 203.553 298.523 203.267 298.75 203.04C298.977 202.813 299.263 202.7 299.61 202.7H300.21C300.597 202.7 300.89 202.813 301.09 203.04C301.303 203.253 301.41 203.533 301.41 203.88C301.41 204.227 301.297 204.52 301.07 204.76C300.843 204.987 300.557 205.1 300.21 205.1H299.61Z" fill="white"/>
</svg>
